Patient4_TMGait_0pt6_01_right_46_GRF.mot
version=1
nRows=32
nColumns=19
inDegrees=no
endheader
time	F1x	F1y	F1z	M1x	M1y	M1z	F2x	F2y	F2z	M2x	M2y	M2z	EC1x	EC1y	EC1z	EC2x	EC2y	EC2z
55.35	-5.0426	707.2619	69.7108	-234.5408	-72.9957	733.1516	-10.9135	8.1996	2.7641	1.9685	-2.5588	13.982	-0.0592	0.0182	-0.0073	-0.0462	0.0165	0.9585
55.3625	-3.0092	700.3824	63.6047	-233.357	-65.6613	718.9543	-7.52	6.4841	1.891	1.724	-1.7159	10.4846	-0.0592	0.0182	-0.0073	-0.0462	0.0165	0.9585
55.375	0.071712	694.7609	57.6318	-232.695	-58.0809	705.2877	-4.6485	5.0286	1.097	1.5378	-0.93064	7.5261	-0.0592	0.0182	-0.0073	-0.0462	0.0165	0.9585
55.3875	4.1342	691.7031	52.0867	-232.939	-50.5884	693.7445	-2.4437	3.9128	0.45449	1.4114	-0.28754	5.2609	-0.0592	0.0182	-0.0073	-0.0462	0.0165	0.9585
55.4	8.9991	692.0543	47.2529	-234.3211	-43.5217	685.3722	-0.93837	3.1611	-0.014559	1.3421	0.19782	3.734	-0.0592	0.0182	-0.0073	-0.0462	0.0165	0.9585
55.4125	14.4469	696.0555	43.2631	-236.873	-37.0768	680.5703	-0.013366	2.7025	-0.32545	1.3119	0.53198	2.8065	-0.0592	0.0182	-0.0073	-0.0462	0.0165	0.9585
55.425	20.2473	703.4143	40.2612	-240.4436	-31.456	679.1744	0.43404	2.4655	-0.50687	1.3024	0.74753	2.3453	-0.0592	0.0182	-0.0073	-0.0462	0.0165	0.9585
55.4375	26.1702	713.4545	38.2401	-244.754	-26.7208	680.632	0.54602	2.3449	-0.59625	1.2872	0.88071	2.1487	-0.0592	0.0182	-0.0073	-0.0462	0.0165	0.9585
55.45	31.9778	725.2391	37.207	-249.4329	-22.9505	684.1507	0.42368	2.2351	-0.62753	1.2371	0.97232	2.0399	-0.0592	0.0182	-0.0073	-0.0462	0.0165	0.9585
55.4625	37.4433	737.7017	37.0752	-254.0689	-20.1419	688.8007	0.1529	2.0243	-0.62113	1.1184	1.0463	1.8478	-0.0592	0.0182	-0.0073	-0.0462	0.0165	0.9585
55.475	42.3408	749.7696	37.7816	-258.2585	-18.3172	693.6385	-0.19542	1.6012	-0.60029	0.89333	1.124	1.4188	-0.0592	0.0182	-0.0073	-0.0462	0.0165	0.9585
55.4875	46.5374	760.4823	39.1659	-261.6603	-17.3837	697.7961	-0.57568	0.8839	-0.57072	0.53056	1.2054	0.65039	-0.0592	0.0182	-0.0073	-0.0462	0.0165	0.9585
55.5	49.9581	769.0498	41.0808	-264.0115	-17.2381	700.5709	-0.91334	-0.19711	-0.54229	0.008626	1.273	-0.55787	-0.0592	0.0182	-0.0073	-0.0462	0.0165	0.9585
55.5125	52.6534	774.8861	43.324	-265.144	-17.686	701.4094	-1.1545	-1.6194	-0.51267	-0.66021	1.298	-2.1776	-0.0592	0.0182	-0.0073	-0.0462	0.0165	0.9585
55.525	54.7104	777.67	45.7407	-264.9926	-18.5627	700.0098	-1.1719	-3.291	-0.48512	-1.4287	1.234	-4.1235	-0.0592	0.0182	-0.0073	-0.0462	0.0165	0.9585
55.5375	56.2676	777.3482	48.185	-263.5945	-19.6955	696.2932	-0.85965	-4.936	-0.43789	-2.1754	1.005	-6.0726	-0.0592	0.0182	-0.0073	-0.0462	0.0165	0.9585
55.55	57.4575	774.1622	50.5779	-261.0948	-20.9764	690.4533	-0.027958	-6.0843	-0.35338	-2.6882	0.50855	-7.4836	-0.0592	0.0182	-0.0073	-0.0462	0.0165	0.9585
55.5625	58.4062	768.6931	52.8608	-257.7611	-22.3194	682.9787	1.4921	-5.9626	-0.19559	-2.6246	-0.3756	-7.4411	-0.0592	0.0182	-0.0073	-0.0462	0.0165	0.9585
55.575	59.2139	761.8302	55.0264	-253.9733	-23.6966	674.6391	3.8868	-3.5054	0.062881	-1.506	-1.7633	-4.6937	-0.0592	0.0182	-0.0073	-0.0462	0.0165	0.9585
55.5875	59.9204	754.6993	57.0712	-250.1983	-25.1031	666.4239	7.2649	2.6836	0.45031	1.2896	-3.7349	2.4173	-0.0592	0.0182	-0.0073	-0.0462	0.0165	0.9585
55.6	60.5383	748.4585	59.001	-246.9213	-26.5557	659.3517	11.5862	14.1889	0.97567	6.4713	-6.2804	15.7751	-0.0592	0.0182	-0.0073	-0.0462	0.0165	0.9585
55.6125	61.0285	744.0683	60.7922	-244.5667	-28.0665	654.3039	16.5322	32.5512	1.6232	14.7277	-9.2298	37.222	-0.0592	0.0182	-0.0073	-0.0462	0.0165	0.9585
55.625	61.3486	741.9809	62.3699	-243.3832	-29.6053	651.6935	21.337	58.837	2.3321	26.5314	-12.1558	68.0652	-0.0592	0.0182	-0.0073	-0.0462	0.0165	0.9585
55.6375	61.3788	741.8705	63.5855	-243.3233	-31.0866	651.262	24.664	93.0001	2.9742	41.8571	-14.3032	108.3202	-0.0592	0.0182	-0.0073	-0.0462	0.0165	0.9585
55.65	60.9868	742.3527	64.1775	-243.9288	-32.3132	651.7724	24.8227	133.3921	3.4107	59.9634	-14.7606	156.1498	-0.0592	0.0182	-0.0073	-0.0462	0.0165	0.9585
55.6625	60.0052	740.8902	63.7761	-244.2581	-32.9675	650.8934	21.1406	176.9918	3.4135	79.4965	-12.9717	208.0639	-0.0592	0.0182	-0.0073	-0.0462	0.0165	0.9585
55.675	58.4018	733.9799	61.9633	-242.9328	-32.5948	645.233	14.8119	219.7572	2.8052	98.6354	-9.2368	259.2324	-0.0592	0.0182	-0.0073	-0.0462	0.0165	0.9585
55.6875	56.3474	718.2863	58.4893	-238.6195	-30.8059	631.5697	7.6974	256.4637	1.3555	115.0684	-4.178	303.2274	-0.0592	0.0182	-0.0073	-0.0462	0.0165	0.9585
55.7	54.0865	691.6747	53.402	-230.4787	-27.5008	607.9142	1.1103	283.6773	-0.72492	127.2665	1.314	335.7311	-0.0592	0.0182	-0.0073	-0.0462	0.0165	0.9585
55.7125	51.5073	653.7025	47.2026	-218.3427	-23.196	574.0082	-4.445	301.8688	-3.0917	135.4415	6.5878	357.1781	-0.0592	0.0182	-0.0073	-0.0462	0.0165	0.9585
55.725	48.2049	605.3675	40.5313	-202.6061	-18.6847	530.9894	-9.076	315.0016	-5.417	141.3387	11.3139	372.2895	-0.0592	0.0182	-0.0073	-0.0462	0.0165	0.9585
55.7375	43.6912	548.6095	34.063	-183.9998	-14.8144	480.8542	-13.0284	328.2768	-7.5674	147.2512	15.4742	387.22	-0.0592	0.0182	-0.0073	-0.0462	0.0165	0.9585
